<svg xmlns="http://www.w3.org/2000/svg" xmlns:xlink="http://www.w3.org/1999/xlink" width="1344" zoomAndPan="magnify" viewBox="0 0 1008 1295.99994" height="1728" preserveAspectRatio="xMidYMid meet" version="1.0"><defs><g/><clipPath id="2ac7123516"><path d="M 167 602 L 336 602 L 336 771 L 167 771 Z M 167 602 " clip-rule="nonzero"/></clipPath><clipPath id="2efa14f625"><path d="M 167.625 686.355469 L 251.417969 602.566406 L 335.210938 686.355469 L 251.417969 770.148438 Z M 167.625 686.355469 " clip-rule="nonzero"/></clipPath><clipPath id="7b5dd1956c"><path d="M 167.625 686.355469 L 251.417969 602.566406 L 335.210938 686.355469 L 251.417969 770.148438 Z M 167.625 686.355469 " clip-rule="nonzero"/></clipPath><clipPath id="e4f9533f2c"><path d="M 237 672 L 336 672 L 336 771 L 237 771 Z M 237 672 " clip-rule="nonzero"/></clipPath><clipPath id="48c2fb2adc"><path d="M 237.929688 691.15625 L 256.492188 672.59375 L 335.511719 751.613281 L 316.949219 770.175781 Z M 237.929688 691.15625 " clip-rule="nonzero"/></clipPath><clipPath id="667cf63306"><path d="M 237.929688 691.15625 L 256.492188 672.59375 L 335.511719 751.613281 L 316.949219 770.175781 Z M 237.929688 691.15625 " clip-rule="nonzero"/></clipPath><clipPath id="c12ed12a3a"><path d="M 177 612 L 326 612 L 326 761 L 177 761 Z M 177 612 " clip-rule="nonzero"/></clipPath><clipPath id="736448462d"><path d="M 177.441406 686.355469 L 251.6875 612.109375 L 325.933594 686.355469 L 251.6875 760.601562 Z M 177.441406 686.355469 " clip-rule="nonzero"/></clipPath><clipPath id="d9656a5262"><path d="M 177.441406 686.355469 L 251.6875 612.109375 L 325.933594 686.355469 L 251.6875 760.601562 Z M 177.441406 686.355469 " clip-rule="nonzero"/></clipPath></defs><g clip-path="url(#2ac7123516)"><g clip-path="url(#2efa14f625)"><g clip-path="url(#7b5dd1956c)"><path fill="#ffffff" d="M 204.867188 686.355469 L 251.417969 639.804688 L 297.96875 686.355469 L 251.417969 732.910156 Z M 251.417969 770.148438 L 335.210938 686.355469 L 251.417969 602.566406 L 167.625 686.355469 L 251.417969 770.148438 " fill-opacity="1" fill-rule="nonzero"/></g></g></g><g clip-path="url(#e4f9533f2c)"><g clip-path="url(#48c2fb2adc)"><g clip-path="url(#667cf63306)"><path fill="#ffffff" d="M 237.929688 691.15625 L 256.492188 672.59375 L 335.511719 751.613281 L 316.949219 770.171875 Z M 237.929688 691.15625 " fill-opacity="1" fill-rule="nonzero"/></g></g></g><g fill="#ffffff" fill-opacity="1"><g transform="translate(341.080441, 752.98463)"><g><path d="M 97.3125 -132.328125 C 97.3125 -135.179688 98.734375 -136.609375 101.578125 -136.609375 L 123.765625 -136.609375 C 126.617188 -136.609375 128.046875 -135.179688 128.046875 -132.328125 L 128.046875 -4.28125 C 128.046875 -1.425781 126.617188 0 123.765625 0 L 101.578125 0 C 98.734375 0 97.3125 -1.425781 97.3125 -4.28125 L 97.3125 -11.234375 C 97.3125 -11.941406 97.085938 -12.382812 96.640625 -12.5625 C 96.191406 -12.738281 95.789062 -12.472656 95.4375 -11.765625 C 88.3125 -2.671875 77.441406 1.875 62.828125 1.875 C 49.273438 1.875 37.910156 -2.046875 28.734375 -9.890625 C 19.554688 -17.734375 14.96875 -28.875 14.96875 -43.3125 L 14.96875 -132.328125 C 14.96875 -135.179688 16.394531 -136.609375 19.25 -136.609375 L 41.703125 -136.609375 C 44.554688 -136.609375 45.984375 -135.179688 45.984375 -132.328125 L 45.984375 -52.125 C 45.984375 -43.75 48.164062 -37.066406 52.53125 -32.078125 C 56.894531 -27.085938 63 -24.59375 70.84375 -24.59375 C 78.863281 -24.59375 85.28125 -27.085938 90.09375 -32.078125 C 94.90625 -37.066406 97.3125 -43.75 97.3125 -52.125 Z M 97.3125 -132.328125 "/></g></g></g><g fill="#ffffff" fill-opacity="1"><g transform="translate(497.454989, 752.98463)"><g><path d="M 68.703125 -138.75 C 79.929688 -138.75 89.863281 -136.785156 98.5 -132.859375 C 107.144531 -128.941406 113.785156 -123.550781 118.421875 -116.6875 C 123.054688 -109.820312 125.375 -102.023438 125.375 -93.296875 L 125.375 -4.28125 C 125.375 -1.425781 123.945312 0 121.09375 0 L 98.640625 0 C 95.785156 0 94.359375 -1.425781 94.359375 -4.28125 L 94.359375 -10.953125 C 94.359375 -11.671875 94.179688 -12.070312 93.828125 -12.15625 C 93.472656 -12.25 93.03125 -12.117188 92.5 -11.765625 C 82.875 -2.492188 70.039062 2.140625 54 2.140625 C 40.8125 2.140625 29.984375 -1.242188 21.515625 -8.015625 C 13.054688 -14.785156 8.828125 -24.859375 8.828125 -38.234375 C 8.828125 -52.128906 13.679688 -62.953125 23.390625 -70.703125 C 33.097656 -78.460938 46.773438 -82.34375 64.421875 -82.34375 L 92.765625 -82.34375 C 93.828125 -82.34375 94.359375 -82.875 94.359375 -83.9375 L 94.359375 -90.09375 C 94.359375 -97.039062 92.265625 -102.429688 88.078125 -106.265625 C 83.890625 -110.097656 77.695312 -112.015625 69.5 -112.015625 C 63.269531 -112.015625 58.101562 -110.898438 54 -108.671875 C 49.90625 -106.441406 47.144531 -103.367188 45.71875 -99.453125 C 45 -96.953125 43.394531 -95.789062 40.90625 -95.96875 L 16.84375 -98.90625 C 15.414062 -99.082031 14.34375 -99.484375 13.625 -100.109375 C 12.914062 -100.734375 12.648438 -101.492188 12.828125 -102.390625 C 14.429688 -113.078125 20.359375 -121.804688 30.609375 -128.578125 C 40.859375 -135.359375 53.554688 -138.75 68.703125 -138.75 Z M 62.5625 -22.453125 C 71.289062 -22.453125 78.769531 -24.769531 85 -29.40625 C 91.238281 -34.039062 94.359375 -39.921875 94.359375 -47.046875 L 94.359375 -59.34375 C 94.359375 -60.414062 93.828125 -60.953125 92.765625 -60.953125 L 70.578125 -60.953125 C 61.128906 -60.953125 53.640625 -59.164062 48.109375 -55.59375 C 42.585938 -52.03125 39.828125 -46.953125 39.828125 -40.359375 C 39.828125 -34.660156 41.960938 -30.25 46.234375 -27.125 C 50.515625 -24.007812 55.957031 -22.453125 62.5625 -22.453125 Z M 62.5625 -22.453125 "/></g></g></g><g fill="#ffffff" fill-opacity="1"><g transform="translate(648.750733, 752.98463)"><g><path d="M 80.203125 -138.203125 C 85.367188 -138.203125 90.085938 -137.222656 94.359375 -135.265625 C 96.503906 -134.191406 97.304688 -132.410156 96.765625 -129.921875 L 92.5 -107.734375 C 92.320312 -106.304688 91.832031 -105.414062 91.03125 -105.0625 C 90.226562 -104.707031 89.023438 -104.707031 87.421875 -105.0625 C 85.273438 -105.769531 82.421875 -106.125 78.859375 -106.125 C 76.722656 -106.125 75.03125 -106.035156 73.78125 -105.859375 C 66.300781 -105.503906 60.0625 -102.875 55.0625 -97.96875 C 50.070312 -93.070312 47.578125 -86.703125 47.578125 -78.859375 L 47.578125 -4.28125 C 47.578125 -1.425781 46.15625 0 43.3125 0 L 20.859375 0 C 18.003906 0 16.578125 -1.425781 16.578125 -4.28125 L 16.578125 -132.328125 C 16.578125 -135.179688 18.003906 -136.609375 20.859375 -136.609375 L 43.3125 -136.609375 C 46.15625 -136.609375 47.578125 -135.179688 47.578125 -132.328125 L 47.578125 -121.90625 C 47.578125 -121.1875 47.753906 -120.738281 48.109375 -120.5625 C 48.472656 -120.382812 48.832031 -120.648438 49.1875 -121.359375 C 56.675781 -132.585938 67.015625 -138.203125 80.203125 -138.203125 Z M 80.203125 -138.203125 "/></g></g></g><g fill="#ffffff" fill-opacity="1"><g transform="translate(761.019992, 752.98463)"><g><path d="M 77.796875 -24.0625 C 84.390625 -24.238281 90.132812 -25.617188 95.03125 -28.203125 C 99.9375 -30.785156 103.90625 -34.304688 106.9375 -38.765625 C 107.820312 -40.191406 108.976562 -40.90625 110.40625 -40.90625 C 111.300781 -40.90625 112.101562 -40.632812 112.8125 -40.09375 L 125.640625 -29.9375 C 126.890625 -28.6875 127.515625 -27.53125 127.515625 -26.46875 C 127.515625 -25.75 127.25 -24.945312 126.71875 -24.0625 C 121.550781 -15.863281 114.507812 -9.445312 105.59375 -4.8125 C 96.6875 -0.175781 86.441406 2.140625 74.859375 2.140625 C 60.773438 2.140625 48.960938 -1.195312 39.421875 -7.875 C 29.890625 -14.5625 22.988281 -23.878906 18.71875 -35.828125 C 15.144531 -45.628906 13.359375 -56.675781 13.359375 -68.96875 C 13.359375 -81.269531 14.34375 -90.71875 16.3125 -97.3125 C 19.695312 -109.957031 26.378906 -120.023438 36.359375 -127.515625 C 46.335938 -135.003906 58.457031 -138.75 72.71875 -138.75 C 106.039062 -138.75 125.554688 -120.476562 131.265625 -83.9375 C 132.148438 -78.0625 132.769531 -70.753906 133.125 -62.015625 C 133.125 -59.171875 131.703125 -57.75 128.859375 -57.75 L 45.984375 -57.75 C 44.910156 -57.75 44.375 -57.210938 44.375 -56.140625 C 44.375 -51.328125 44.910156 -47.40625 45.984375 -44.375 C 47.941406 -37.957031 51.679688 -32.96875 57.203125 -29.40625 C 62.734375 -25.84375 69.597656 -24.0625 77.796875 -24.0625 Z M 72.453125 -112.015625 C 65.671875 -112.015625 60.097656 -110.363281 55.734375 -107.0625 C 51.367188 -103.769531 48.382812 -99.179688 46.78125 -93.296875 C 45.53125 -89.734375 44.816406 -85.988281 44.640625 -82.0625 C 44.460938 -81 44.910156 -80.46875 45.984375 -80.46875 L 99.71875 -80.46875 C 100.78125 -80.46875 101.3125 -81 101.3125 -82.0625 C 100.601562 -87.414062 100.070312 -90.625 99.71875 -91.6875 C 98.113281 -97.925781 94.945312 -102.875 90.21875 -106.53125 C 85.5 -110.1875 79.578125 -112.015625 72.453125 -112.015625 Z M 72.453125 -112.015625 "/></g></g></g><g clip-path="url(#c12ed12a3a)"><g clip-path="url(#736448462d)"><g clip-path="url(#d9656a5262)"><path fill="#ffffff" d="M 210.441406 686.355469 L 251.6875 645.105469 L 292.9375 686.355469 L 251.6875 727.605469 Z M 251.6875 760.601562 L 325.933594 686.355469 L 251.6875 612.109375 L 177.441406 686.355469 L 251.6875 760.601562 " fill-opacity="1" fill-rule="nonzero"/></g></g></g><g fill="#ffffff" fill-opacity="1"><g transform="translate(31.530553, 748.405634)"><g><path d="M 66.78125 1.578125 C 55.695312 1.578125 45.972656 -0.046875 37.609375 -3.296875 C 29.253906 -6.554688 22.785156 -11.046875 18.203125 -16.765625 C 13.628906 -22.484375 11.34375 -28.863281 11.34375 -35.90625 L 11.34375 -37.21875 C 11.34375 -40.039062 12.753906 -41.453125 15.578125 -41.453125 L 36.6875 -41.453125 C 39.507812 -41.453125 40.921875 -40.832031 40.921875 -39.59375 L 40.921875 -37.75 C 40.921875 -33.351562 43.335938 -29.523438 48.171875 -26.265625 C 53.015625 -23.003906 59.132812 -21.375 66.53125 -21.375 C 73.5625 -21.375 79.273438 -22.828125 83.671875 -25.734375 C 88.078125 -28.640625 90.28125 -32.289062 90.28125 -36.6875 C 90.28125 -40.738281 88.472656 -43.773438 84.859375 -45.796875 C 81.253906 -47.828125 75.40625 -49.984375 67.3125 -52.265625 L 57.28125 -55.4375 C 48.3125 -58.070312 40.742188 -60.882812 34.578125 -63.875 C 28.421875 -66.875 23.226562 -70.96875 19 -76.15625 C 14.78125 -81.351562 12.671875 -88 12.671875 -96.09375 C 12.671875 -108.40625 17.46875 -118.210938 27.0625 -125.515625 C 36.65625 -132.828125 49.367188 -136.484375 65.203125 -136.484375 C 75.941406 -136.484375 85.359375 -134.765625 93.453125 -131.328125 C 101.546875 -127.898438 107.835938 -123.148438 112.328125 -117.078125 C 116.816406 -111.003906 119.0625 -104.097656 119.0625 -96.359375 C 119.0625 -95.472656 118.664062 -94.722656 117.875 -94.109375 C 117.082031 -93.492188 116.066406 -93.1875 114.828125 -93.1875 L 94.5 -93.1875 C 91.6875 -93.1875 90.28125 -93.710938 90.28125 -94.765625 L 90.28125 -96.359375 C 90.28125 -100.929688 88.035156 -104.753906 83.546875 -107.828125 C 79.054688 -110.910156 72.941406 -112.453125 65.203125 -112.453125 C 58.335938 -112.453125 52.75 -111.175781 48.4375 -108.625 C 44.125 -106.070312 41.96875 -102.507812 41.96875 -97.9375 C 41.96875 -93.71875 43.988281 -90.503906 48.03125 -88.296875 C 52.082031 -86.097656 58.863281 -83.679688 68.375 -81.046875 L 74.4375 -79.453125 C 83.945312 -76.640625 91.867188 -73.820312 98.203125 -71 C 104.535156 -68.1875 109.898438 -64.140625 114.296875 -58.859375 C 118.703125 -53.585938 120.90625 -46.816406 120.90625 -38.546875 C 120.90625 -26.046875 115.976562 -16.234375 106.125 -9.109375 C 96.269531 -1.984375 83.15625 1.578125 66.78125 1.578125 Z M 66.78125 1.578125 "/></g></g></g><g fill="#ffffff" fill-opacity="1"><g transform="translate(957.976313, 756.639177)"><g><path d="M 0.59375 -20.03125 C 0.59375 -16.476562 -0.328125 -13.429688 -2.171875 -10.890625 C -4.023438 -8.359375 -6.53125 -6.625 -9.6875 -5.6875 C -11.851562 -5.050781 -14.90625 -4.734375 -18.84375 -4.734375 C -22.394531 -4.734375 -25.40625 -5.050781 -27.875 -5.6875 C -30.925781 -6.570312 -33.375 -8.296875 -35.21875 -10.859375 C -37.070312 -13.421875 -38 -16.476562 -38 -20.03125 C -38 -23.625 -37.085938 -26.738281 -35.265625 -29.375 C -33.441406 -32.019531 -31.171875 -33.734375 -28.453125 -34.515625 C -27.765625 -34.710938 -27.101562 -34.863281 -26.46875 -34.96875 L -26.3125 -34.96875 C -25.769531 -34.96875 -25.453125 -34.671875 -25.359375 -34.078125 L -24.984375 -30.828125 L -24.984375 -30.609375 C -24.984375 -30.160156 -25.253906 -29.863281 -25.796875 -29.71875 C -25.992188 -29.71875 -26.289062 -29.664062 -26.6875 -29.5625 C -28.5625 -29.125 -30.148438 -28.039062 -31.453125 -26.3125 C -32.753906 -24.59375 -33.40625 -22.5 -33.40625 -20.03125 C -33.40625 -17.570312 -32.753906 -15.515625 -31.453125 -13.859375 C -30.148438 -12.210938 -28.414062 -11.140625 -26.25 -10.640625 C -24.375 -10.203125 -21.882812 -9.984375 -18.78125 -9.984375 C -15.519531 -9.984375 -13.003906 -10.203125 -11.234375 -10.640625 C -9.015625 -11.140625 -7.25 -12.210938 -5.9375 -13.859375 C -4.632812 -15.515625 -3.984375 -17.570312 -3.984375 -20.03125 C -3.984375 -22.445312 -4.613281 -24.53125 -5.875 -26.28125 C -7.132812 -28.03125 -8.722656 -29.101562 -10.640625 -29.5 C -10.742188 -29.539062 -10.867188 -29.5625 -11.015625 -29.5625 L -11.09375 -29.640625 C -11.726562 -29.691406 -12 -30.0625 -11.90625 -30.75 L -11.390625 -33.9375 C -11.285156 -34.570312 -10.914062 -34.863281 -10.28125 -34.8125 L -9.015625 -34.515625 C -6.160156 -33.773438 -3.84375 -32.070312 -2.0625 -29.40625 C -0.289062 -26.75 0.59375 -23.625 0.59375 -20.03125 Z M 0.59375 -20.03125 "/></g></g></g><g fill="#ffffff" fill-opacity="1"><g transform="translate(957.976313, 717.921181)"><g><path d="M 0.59375 -20.25 C 0.59375 -16.65625 -0.316406 -13.585938 -2.140625 -11.046875 C -3.960938 -8.515625 -6.476562 -6.753906 -9.6875 -5.765625 C -11.945312 -5.078125 -14.976562 -4.734375 -18.78125 -4.734375 C -22.519531 -4.734375 -25.523438 -5.050781 -27.796875 -5.6875 C -30.953125 -6.675781 -33.441406 -8.4375 -35.265625 -10.96875 C -37.085938 -13.507812 -38 -16.601562 -38 -20.25 C -38 -23.800781 -37.085938 -26.84375 -35.265625 -29.375 C -33.441406 -31.914062 -30.976562 -33.65625 -27.875 -34.59375 C -25.5 -35.28125 -22.46875 -35.625 -18.78125 -35.625 C -14.976562 -35.625 -11.945312 -35.28125 -9.6875 -34.59375 C -6.476562 -33.601562 -3.960938 -31.835938 -2.140625 -29.296875 C -0.316406 -26.765625 0.59375 -23.75 0.59375 -20.25 Z M -3.984375 -20.25 C -3.984375 -22.613281 -4.632812 -24.632812 -5.9375 -26.3125 C -7.25 -27.988281 -9.015625 -29.125 -11.234375 -29.71875 C -12.816406 -30.113281 -15.304688 -30.3125 -18.703125 -30.3125 C -22.253906 -30.3125 -24.742188 -30.113281 -26.171875 -29.71875 C -28.390625 -29.175781 -30.148438 -28.050781 -31.453125 -26.34375 C -32.753906 -24.644531 -33.40625 -22.566406 -33.40625 -20.109375 C -33.40625 -17.742188 -32.753906 -15.722656 -31.453125 -14.046875 C -30.148438 -12.367188 -28.390625 -11.234375 -26.171875 -10.640625 C -24.742188 -10.242188 -22.253906 -10.046875 -18.703125 -10.046875 C -15.148438 -10.046875 -12.660156 -10.242188 -11.234375 -10.640625 C -9.015625 -11.179688 -7.25 -12.300781 -5.9375 -14 C -4.632812 -15.707031 -3.984375 -17.789062 -3.984375 -20.25 Z M -3.984375 -20.25 "/></g></g></g><g fill="#ffffff" fill-opacity="1"><g transform="translate(957.976313, 677.28209)"><g><path d="M -37.921875 -43.765625 C -37.921875 -47.460938 -36.8125 -50.378906 -34.59375 -52.515625 C -32.375 -54.660156 -29.34375 -55.734375 -25.5 -55.734375 L -0.96875 -55.734375 C -0.320312 -55.734375 0 -55.414062 0 -54.78125 L 0 -51.53125 C 0 -50.882812 -0.320312 -50.5625 -0.96875 -50.5625 L -24.46875 -50.5625 C -27.175781 -50.5625 -29.332031 -49.785156 -30.9375 -48.234375 C -32.539062 -46.679688 -33.34375 -44.648438 -33.34375 -42.140625 C -33.34375 -39.523438 -32.550781 -37.414062 -30.96875 -35.8125 C -29.394531 -34.207031 -27.273438 -33.40625 -24.609375 -33.40625 L -0.96875 -33.40625 C -0.320312 -33.40625 0 -33.085938 0 -32.453125 L 0 -29.125 C 0 -28.488281 -0.320312 -28.171875 -0.96875 -28.171875 L -24.46875 -28.171875 C -27.175781 -28.171875 -29.332031 -27.40625 -30.9375 -25.875 C -32.539062 -24.34375 -33.34375 -22.296875 -33.34375 -19.734375 C -33.34375 -17.117188 -32.550781 -15.035156 -30.96875 -13.484375 C -29.394531 -11.929688 -27.273438 -11.15625 -24.609375 -11.15625 L -0.96875 -11.15625 C -0.320312 -11.15625 0 -10.835938 0 -10.203125 L 0 -6.875 C 0 -6.226562 -0.320312 -5.90625 -0.96875 -5.90625 L -36.4375 -5.90625 C -37.082031 -5.90625 -37.40625 -6.226562 -37.40625 -6.875 L -37.40625 -10.203125 C -37.40625 -10.835938 -37.082031 -11.15625 -36.4375 -11.15625 L -33.859375 -11.15625 C -33.710938 -11.15625 -33.613281 -11.203125 -33.5625 -11.296875 C -33.507812 -11.398438 -33.554688 -11.503906 -33.703125 -11.609375 C -35.140625 -12.691406 -36.203125 -14.070312 -36.890625 -15.75 C -37.578125 -17.425781 -37.921875 -19.296875 -37.921875 -21.359375 C -37.921875 -23.878906 -37.398438 -26.050781 -36.359375 -27.875 C -35.328125 -29.695312 -33.878906 -31.078125 -32.015625 -32.015625 C -31.710938 -32.160156 -31.6875 -32.304688 -31.9375 -32.453125 C -33.957031 -33.535156 -35.457031 -35.0625 -36.4375 -37.03125 C -37.425781 -39 -37.921875 -41.242188 -37.921875 -43.765625 Z M -37.921875 -43.765625 "/></g></g></g></svg>